Coordinates
version=1
nRows=35
nColumns=38
inDegrees=no

Units are S.I. units (second, meters, Newtons, ...)
If the header above contains a line with 'inDegrees', this indicates whether rotational values are in degrees (yes) or radians (no).

endheader
time	pelvis_tilt	pelvis_list	pelvis_rotation	pelvis_tx	pelvis_ty	pelvis_tz	hip_flexion_r	hip_adduction_r	hip_rotation_r	knee_angle_r	ankle_angle_r	subtalar_angle_r	mtp_angle_r	hip_flexion_l	hip_adduction_l	hip_rotation_l	knee_angle_l	ankle_angle_l	subtalar_angle_l	mtp_angle_l	lumbar_extension	lumbar_bending	lumbar_rotation	arm_flex_r	arm_add_r	arm_rot_r	elbow_flex_r	pro_sup_r	wrist_flex_r	wrist_dev_r	arm_flex_l	arm_add_l	arm_rot_l	elbow_flex_l	pro_sup_l	wrist_flex_l	wrist_dev_l
5	0.882626	1.35055	0.57872	0.671426	0.032851	0.958459	0.339591	0.225408	-0.18666	0.436495	0.111583	0	0	0.257331	-0.222711	-0.0445902	1.10973	0.132301	0	0	-0.113933	0.184597	0.128103	0.678822	-0.245019	0.301626	1.36375	1.5708	0	0	0.794628	-0.25069	0.472184	1.09255	1.5708	0	0
5.01	0.882694	1.35136	0.573363	0.672567	0.0383719	0.959403	0.325484	0.226879	-0.183371	0.42508	0.113291	0	0	0.275297	-0.22275	-0.038651	1.11294	0.134794	0	0	-0.11599	0.184955	0.133077	0.679214	-0.243422	0.303005	1.3624	1.5708	0	0	0.794489	-0.251938	0.471974	1.08888	1.5708	0	0
5.02	0.891061	1.3535	0.560106	0.673654	0.043884	0.960432	0.309115	0.227891	-0.180366	0.413863	0.115297	0	0	0.290112	-0.222535	-0.033022	1.11242	0.137344	0	0	-0.120701	0.184976	0.138245	0.680554	-0.242886	0.305794	1.36082	1.5708	0	0	0.796427	-0.254264	0.476225	1.08493	1.5708	0	0
5.03	0.899464	1.35586	0.546777	0.674722	0.0493661	0.961388	0.293099	0.228453	-0.17697	0.403452	0.117702	0	0	0.304204	-0.222318	-0.0283845	1.10862	0.141788	0	0	-0.12557	0.18468	0.14363	0.682224	-0.242722	0.308762	1.35897	1.5708	0	0	0.79885	-0.256571	0.480683	1.08073	1.5708	0	0
5.04	0.909122	1.35858	0.532052	0.67576	0.05483	0.962285	0.276875	0.22867	-0.173055	0.393337	0.120182	0	0	0.317155	-0.221952	-0.0244696	1.10171	0.14601	0	0	-0.130983	0.184049	0.14935	0.683978	-0.242565	0.311027	1.35809	1.5708	0	0	0.801746	-0.258901	0.485755	1.07632	1.5708	0	0
5.05	0.920923	1.36154	0.515081	0.676778	0.0602798	0.963131	0.260219	0.22889	-0.168519	0.38343	0.122725	0	0	0.328872	-0.221876	-0.0214653	1.09177	0.150416	0	0	-0.137033	0.183243	0.155422	0.68572	-0.242684	0.312677	1.35835	1.5708	0	0	0.805132	-0.261261	0.49176	1.0719	1.5708	0	0
5.06	0.942106	1.36405	0.486881	0.677941	0.0657272	0.964035	0.241023	0.231617	-0.158474	0.37187	0.123311	0	0	0.337542	-0.22491	-0.0224193	1.07851	0.154681	0	0	-0.145179	0.183594	0.164078	0.688004	-0.244359	0.315705	1.3594	1.5708	0	0	0.808895	-0.262756	0.497187	1.06711	1.5708	0	0
5.07	1.01208	1.35093	0.382848	0.679853	0.0687596	0.966244	0.219526	0.260587	-0.113721	0.360493	0.107187	0	0	0.33832	-0.258212	-0.0469568	1.06452	0.159335	0	0	-0.169718	0.204503	0.203315	0.703055	-0.253895	0.328224	1.36103	1.5708	0	0	0.813057	-0.25828	0.492393	1.06279	1.5708	0	0
5.08	1.01543	1.35279	0.37467	0.680722	0.0740849	0.96668	0.207154	0.259488	-0.1097	0.35415	0.110491	0	0	0.350603	-0.258569	-0.0450416	1.04625	0.160634	0	0	-0.173378	0.203526	0.208622	0.704442	-0.254731	0.330581	1.36127	1.5708	0	0	0.815205	-0.260315	0.495492	1.0605	1.5708	0	0
5.09	1.02038	1.35509	0.36478	0.681546	0.0793698	0.967104	0.194294	0.258182	-0.104416	0.347832	0.113797	0	0	0.361162	-0.258642	-0.0439406	1.02442	0.160252	0	0	-0.177771	0.202203	0.214095	0.706212	-0.255662	0.333492	1.36183	1.5708	0	0	0.817455	-0.262414	0.4987	1.05833	1.5708	0	0
5.1	1.02346	1.35717	0.356946	0.682316	0.0846388	0.967414	0.182221	0.256818	-0.0989241	0.341752	0.117108	0	0	0.371373	-0.258919	-0.0435742	0.999859	0.158798	0	0	-0.181609	0.200997	0.219308	0.708113	-0.256457	0.336568	1.36301	1.5708	0	0	0.81911	-0.264395	0.501319	1.05691	1.5708	0	0
5.11	1.02516	1.35911	0.350884	0.683	0.0898999	0.967614	0.170875	0.255265	-0.0935636	0.336029	0.120427	0	0	0.38121	-0.259412	-0.044103	0.973039	0.156718	0	0	-0.184961	0.199957	0.224078	0.709965	-0.257007	0.339129	1.36402	1.5708	0	0	0.820463	-0.265935	0.50345	1.05538	1.5708	0	0
5.12	1.02614	1.36108	0.345895	0.683614	0.095173	0.967736	0.1601	0.253343	-0.0886041	0.330886	0.124049	0	0	0.390334	-0.259829	-0.0454606	0.944028	0.154615	0	0	-0.188034	0.198882	0.228515	0.711711	-0.25758	0.341446	1.36476	1.5708	0	0	0.821872	-0.266949	0.505157	1.05321	1.5708	0	0
5.13	1.0266	1.36323	0.341715	0.684189	0.10048	0.967803	0.149691	0.251052	-0.084198	0.326203	0.127902	0	0	0.39845	-0.260002	-0.0475853	0.912724	0.15169	0	0	-0.190854	0.197597	0.232716	0.713349	-0.258192	0.343289	1.36529	1.5708	0	0	0.823001	-0.267652	0.505432	1.05225	1.5708	0	0
5.14	1.02632	1.36542	0.33853	0.684701	0.105798	0.967804	0.139607	0.248578	-0.0798795	0.321612	0.131616	0	0	0.405702	-0.259952	-0.0503205	0.879269	0.148135	0	0	-0.1935	0.196256	0.236447	0.715319	-0.25852	0.34497	1.36607	1.5708	0	0	0.82385	-0.268074	0.504347	1.05133	1.5708	0	0
5.15	1.0249	1.36754	0.336754	0.685129	0.111131	0.967705	0.130219	0.245969	-0.0758271	0.317828	0.135594	0	0	0.412295	-0.259802	-0.0537143	0.843906	0.144402	0	0	-0.195794	0.194981	0.239669	0.717442	-0.258336	0.346283	1.36705	1.5708	0	0	0.82457	-0.268334	0.503171	1.05003	1.5708	0	0
5.16	1.02165	1.36945	0.336981	0.685505	0.116502	0.967495	0.121986	0.243255	-0.0722969	0.315308	0.139955	0	0	0.418319	-0.259591	-0.05766	0.806773	0.140712	0	0	-0.19743	0.193847	0.242603	0.71943	-0.258149	0.347588	1.36794	1.5708	0	0	0.824821	-0.26847	0.50155	1.04975	1.5708	0	0
5.17	1.01795	1.37166	0.337679	0.685829	0.121933	0.967238	0.114022	0.240209	-0.0683345	0.313332	0.144564	0	0	0.423082	-0.258886	-0.0623028	0.767955	0.136534	0	0	-0.198946	0.192452	0.245362	0.7213	-0.25804	0.34906	1.36878	1.5708	0	0	0.82486	-0.268344	0.499347	1.04921	1.5708	0	0
5.18	1.01312	1.37415	0.339601	0.686094	0.12742	0.966929	0.106392	0.236794	-0.0638764	0.311951	0.149274	0	0	0.426949	-0.257628	-0.0676166	0.727769	0.131682	0	0	-0.200174	0.190747	0.247715	0.723104	-0.257838	0.350787	1.36936	1.5708	0	0	0.824756	-0.268156	0.496804	1.0483	1.5708	0	0
5.19	1.00709	1.37674	0.343182	0.686279	0.132957	0.966544	0.0993353	0.233079	-0.0598989	0.31128	0.154314	0	0	0.430251	-0.255788	-0.0728201	0.686752	0.126179	0	0	-0.20097	0.18891	0.249416	0.725015	-0.257544	0.352613	1.36939	1.5708	0	0	0.824443	-0.267951	0.493751	1.0478	1.5708	0	0
5.2	1.00004	1.37917	0.348182	0.686394	0.13857	0.966055	0.0928295	0.229374	-0.056394	0.311133	0.159247	0	0	0.433199	-0.253537	-0.0773068	0.645451	0.119906	0	0	-0.20123	0.187223	0.250747	0.72699	-0.257283	0.354228	1.36954	1.5708	0	0	0.823792	-0.267723	0.490412	1.04864	1.5708	0	0
5.21	0.992477	1.38129	0.354123	0.686438	0.144238	0.96549	0.0868006	0.225737	-0.0534794	0.311318	0.164486	0	0	0.435851	-0.251128	-0.0811657	0.603984	0.112475	0	0	-0.201142	0.185871	0.251743	0.728829	-0.257335	0.355702	1.37058	1.5708	0	0	0.822988	-0.267364	0.487321	1.04999	1.5708	0	0
5.22	0.983609	1.38332	0.361732	0.68642	0.149971	0.964854	0.0811713	0.221995	-0.0507403	0.311815	0.170525	0	0	0.438303	-0.248258	-0.084045	0.562791	0.103758	0	0	-0.20054	0.184582	0.252532	0.73033	-0.257847	0.356793	1.37176	1.5708	0	0	0.822107	-0.266837	0.484593	1.05206	1.5708	0	0
5.23	0.973507	1.38514	0.370866	0.686356	0.15578	0.964137	0.0759126	0.218226	-0.0483836	0.31265	0.177068	0	0	0.440885	-0.245159	-0.0860862	0.52289	0.0935576	0	0	-0.19936	0.183485	0.253075	0.731555	-0.258729	0.357892	1.37271	1.5708	0	0	0.82135	-0.266115	0.48216	1.05326	1.5708	0	0
5.24	0.962872	1.38652	0.38079	0.686239	0.161653	0.963325	0.0711683	0.214691	-0.0465716	0.313972	0.183478	0	0	0.443946	-0.242148	-0.0867221	0.48516	0.0823302	0	0	-0.197717	0.182888	0.253245	0.732805	-0.259566	0.358816	1.37341	1.5708	0	0	0.820771	-0.265486	0.480169	1.05375	1.5708	0	0
5.25	0.882177	1.38681	0.470182	0.685236	0.166485	0.961382	0.0791281	0.206544	-0.0484894	0.30977	0.189671	0	0	0.459001	-0.235955	-0.108682	0.432156	0.0589693	0	0	-0.182855	0.178418	0.242307	0.733922	-0.258796	0.357511	1.37389	1.5708	0	0	0.822015	-0.265749	0.479426	1.05389	1.5708	0	0
5.26	0.933484	1.3881	0.408794	0.685918	0.173598	0.961348	0.0644334	0.207641	-0.0445035	0.318949	0.196943	0	0	0.451582	-0.236	-0.0847198	0.4144	0.0570262	0	0	-0.191756	0.182317	0.253074	0.734712	-0.260876	0.359594	1.37545	1.5708	0	0	0.819035	-0.264379	0.476462	1.05464	1.5708	0	0
5.27	0.92906	1.38888	0.412737	0.685744	0.179695	0.9604	0.0581618	0.205218	-0.0424689	0.319881	0.203174	0	0	0.453889	-0.233787	-0.0835668	0.383	0.0445968	0	0	-0.190653	0.182784	0.253185	0.73615	-0.262391	0.360991	1.3777	1.5708	0	0	0.818248	-0.263852	0.47494	1.05653	1.5708	0	0
5.28	0.921263	1.38981	0.420005	0.685558	0.185895	0.959388	0.0523306	0.20225	-0.0405756	0.32076	0.209557	0	0	0.456832	-0.231119	-0.082332	0.354354	0.0319946	0	0	-0.188758	0.182785	0.253167	0.737147	-0.263865	0.362251	1.37983	1.5708	0	0	0.81704	-0.263345	0.473466	1.0587	1.5708	0	0
5.29	0.871364	1.38196	0.475093	0.685808	0.190798	0.95762	0.0611055	0.206042	-0.0395827	0.323179	0.212885	0	0	0.472565	-0.231241	-0.0796375	0.320688	0.0126105	0	0	-0.176264	0.185941	0.248017	0.737735	-0.263012	0.360422	1.38065	1.5708	0	0	0.81841	-0.264472	0.473504	1.06102	1.5708	0	0
5.3	0.840384	1.41085	0.530997	0.684397	0.201393	0.955845	0.0379093	0.169036	-0.0841715	0.319574	0.238929	0	0	0.465925	-0.189104	-0.0591883	0.302327	0.00650791	0	0	-0.169459	0.157701	0.217823	0.724207	-0.256994	0.351512	1.38143	1.5708	0	0	0.81578	-0.270597	0.482567	1.06375	1.5708	0	0
5.31	0.84655	1.41489	0.526152	0.684026	0.207887	0.955033	0.0275708	0.163607	-0.0873583	0.320245	0.24643	0	0	0.465102	-0.184079	-0.0573746	0.282149	-0.00318383	0	0	-0.171342	0.15547	0.21598	0.72516	-0.257816	0.351507	1.3828	1.5708	0	0	0.815888	-0.271017	0.483173	1.06629	1.5708	0	0
5.32	0.853015	1.41763	0.519542	0.683737	0.214471	0.954212	0.0174492	0.159697	-0.086678	0.320147	0.252406	0	0	0.465153	-0.181044	-0.0575365	0.265936	-0.00976558	0	0	-0.17252	0.154432	0.21601	0.725948	-0.259495	0.352721	1.3841	1.5708	0	0	0.81518	-0.270257	0.481606	1.06827	1.5708	0	0
5.33	0.861427	1.42033	0.510804	0.683455	0.221107	0.953438	0.00731718	0.155837	-0.0856203	0.320616	0.258569	0	0	0.464833	-0.178175	-0.058108	0.252315	-0.0151455	0	0	-0.17392	0.153416	0.21655	0.726649	-0.261414	0.354163	1.38526	1.5708	0	0	0.814756	-0.268966	0.479924	1.06924	1.5708	0	0
5.34	0.873463	1.4235	0.49792	0.683179	0.227872	0.952735	-0.00317946	0.151544	-0.0849563	0.322051	0.264417	0	0	0.463569	-0.175397	-0.0598352	0.24148	-0.0182639	0	0	-0.175984	0.152066	0.217614	0.72729	-0.263324	0.354463	1.38635	1.5708	0	0	0.814616	-0.267579	0.478381	1.06962	1.5708	0	0
